<?xml version="1.0" encoding="UTF-8"?>
<!DOCTYPE svg PUBLIC "-//W3C//DTD SVG 1.1//EN" "http://www.w3.org/Graphics/SVG/1.1/DTD/svg11.dtd">
<!-- Creator: CorelDRAW -->
<svg xmlns="http://www.w3.org/2000/svg" xml:space="preserve" width="210mm" height="297mm" version="1.1" style="shape-rendering:geometricPrecision; text-rendering:geometricPrecision; image-rendering:optimizeQuality; fill-rule:evenodd; clip-rule:evenodd"
viewBox="0 0 21000 29700"
 xmlns:xlink="http://www.w3.org/1999/xlink"
 xmlns:xodm="http://www.corel.com/coreldraw/odm/2003">
 <defs>
  <style type="text/css">
   <![CDATA[
    .str0 {stroke:#FEFEFE;stroke-width:75;stroke-miterlimit:22.9256}
    .fil2 {fill:none}
    .fil0 {fill:#1857D5;fill-rule:nonzero}
    .fil1 {fill:white;fill-rule:nonzero}
   ]]>
  </style>
 </defs>
 <g id="Capa_x0020_1">
  <metadata id="CorelCorpID_0Corel-Layer"/>
  <path class="fil0" d="M5136.67 13206.65l0 2.64c0.01,48.21 -39.09,87.31 -87.3,87.31l-502.72 0.01c-48.19,-0.01 -87.29,-39.11 -87.29,-87.32l-0.02 -2.64c0.02,-48.21 39.12,-87.31 87.33,-87.31l502.69 0c48.22,0 87.32,39.1 87.32,87.3z"/>
  <path class="fil0" d="M5147.26 12079.52l0 2.65c-0.01,48.21 -39.11,87.31 -87.32,87.31l-529.16 0c-48.2,0 -87.3,-39.1 -87.3,-87.31l-0.02 -2.65c0.02,-48.2 39.12,-87.3 87.33,-87.3l529.15 -0.01c48.21,0.01 87.31,39.11 87.31,87.31z"/>
  <path class="fil0" d="M5218.69 11717.04l0 2.65c0.01,48.21 -39.09,87.31 -87.3,87.31l-666.76 0c-48.19,0 -87.29,-39.1 -87.29,-87.31l-0.02 -2.65c0.02,-48.2 39.12,-87.3 87.33,-87.3l666.73 -0.01c48.22,0.01 87.32,39.11 87.32,87.31z"/>
  <path class="fil0" d="M4578.22 13282.32l-2.45 1.01c-44.61,18.29 -95.63,-3.05 -113.92,-47.65l-765.02 -1865.34c-18.3,-44.6 3.04,-95.61 47.64,-113.89l2.45 -1.02c44.61,-18.27 95.62,3.06 113.92,47.65l765.03 1865.33c18.29,44.6 -3.05,95.61 -47.66,113.91z"/>
  <path class="fil0" d="M5012.76 13290.93l-2.45 -1c-44.61,-18.3 -65.94,-69.32 -47.65,-113.92l779.09 -1899.61c18.29,-44.58 69.3,-65.92 113.9,-47.62l2.46 0.99c44.6,18.3 65.94,69.3 47.65,113.9l-779.08 1899.61c-18.3,44.6 -69.32,65.94 -113.92,47.64z"/>
  <path class="fil0" d="M4500.48 11797.4l-2.43 1.05c-44.25,19.14 -95.66,-1.21 -114.81,-45.46l-249.03 -575.47c-19.15,-44.23 1.21,-95.64 45.46,-114.79l2.42 -1.07c44.24,-19.13 95.66,1.23 114.8,45.48l249.04 575.45c19.14,44.25 -1.22,95.66 -45.46,114.81z"/>
  <path class="fil0" d="M5415.19 11054.06l2.42 1.05c44.24,19.15 64.6,70.57 45.45,114.81l-252.18 582.76c-19.15,44.23 -70.56,64.59 -114.81,45.44l-2.43 -1.03c-44.23,-19.17 -64.59,-70.58 -45.44,-114.82l252.18 -582.75c19.15,-44.24 70.56,-64.6 114.8,-45.45z"/>
  <path class="fil1" d="M7799.9 10886.09l0 0c17.7,10.23 23.78,32.89 13.55,50.6l-763.31 1322.11c-10.22,17.69 -32.89,23.76 -50.6,13.54l0 0.01c-17.71,-10.24 -23.78,-32.9 -13.56,-50.61l763.32 -1322.09c10.22,-17.71 32.88,-23.78 50.59,-13.56z"/>
  <path class="fil1" d="M6692.86 11702.01l0 0c-17.72,-10.23 -23.79,-32.89 -13.57,-50.6l340 -588.87c10.21,-17.69 32.87,-23.76 50.58,-13.54l0.02 -0.02c17.69,10.25 23.77,32.91 13.54,50.62l-339.97 588.85c-10.24,17.71 -32.9,23.78 -50.61,13.56z"/>
  <polygon class="fil0" points="4536.07,13206.65 3744.96,11259.32 4258.26,11259.32 5033.49,13243.69 "/>
  <polygon class="fil0" points="5070.53,13161.67 5861.63,11214.35 5348.34,11214.35 4573.11,13201.36 "/>
  <rect class="fil0" x="4340.27" y="11677.36" width="1095.38" height="404.81"/>
  <path class="fil0" d="M1702.39 9280.24l2.65 0c48.22,0 87.32,39.1 87.32,87.31l-0.01 3823.22c0.01,48.2 -39.09,87.3 -87.3,87.3l-2.66 0.02c-48.2,-0.02 -87.3,-39.12 -87.3,-87.33l-0.01 -3823.21c0.01,-48.21 39.11,-87.31 87.32,-87.31z"/>
  <path class="fil0" d="M2149.54 10100.45l2.64 0c48.22,0 87.32,39.1 87.32,87.31l0 2196.03c0,48.2 -39.1,87.3 -87.31,87.3l-2.65 0.02c-48.2,-0.02 -87.3,-39.12 -87.3,-87.33l-0.02 -2196.02c0.02,-48.21 39.12,-87.31 87.33,-87.31z"/>
  <path class="fil0" d="M3329.58 10105.74l2.64 0c48.22,0 87.32,39.1 87.32,87.31l0 2196.04c0,48.2 -39.1,87.3 -87.31,87.3l-2.65 0.01c-48.2,-0.01 -87.3,-39.11 -87.3,-87.32l-0.01 -2196.03c0.01,-48.21 39.11,-87.31 87.32,-87.31z"/>
  <path class="fil0" d="M2292.41 9367.55l0 2.65c0,48.23 -39.1,87.33 -87.31,87.33l-502.71 -0.02c-48.2,0.02 -87.3,-39.08 -87.3,-87.29l-0.01 -2.67c0.01,-48.19 39.11,-87.29 87.32,-87.29l502.7 -0.02c48.21,0.02 87.31,39.12 87.31,87.33z"/>
  <path class="fil0" d="M3861.38 9367.55l0 2.65c0,48.22 -39.1,87.32 -87.31,87.32l-502.7 -0.01c-48.2,0.01 -87.3,-39.09 -87.3,-87.3l-0.01 -2.66c0.01,-48.2 39.11,-87.3 87.32,-87.3l502.69 -0.01c48.21,0.01 87.31,39.11 87.31,87.32z"/>
  <path class="fil0" d="M2701.64 10519.51l-2.37 -1.18c-43.14,-21.51 -60.69,-73.95 -39.18,-117.09l534.8 -1072.64c21.51,-43.14 73.95,-60.69 117.09,-39.17l2.37 1.17c43.14,21.52 60.69,73.95 39.17,117.1l-534.78 1072.63c-21.52,43.15 -73.96,60.69 -117.11,39.18z"/>
  <path class="fil0" d="M2778.39 10519.95l-2.37 1.18c-43.15,21.51 -95.59,3.97 -117.1,-39.18l-534.79 -1072.64c-21.52,-43.13 -3.97,-95.57 39.17,-117.08l2.38 -1.2c43.14,-21.5 95.58,-3.95 117.09,39.19l534.8 1072.63c21.51,43.15 3.96,95.59 -39.18,117.1z"/>
  <path class="fil0" d="M3314.78 13270.92l-2.37 1.18c-43.14,21.52 -95.58,3.97 -117.09,-39.18l-534.81 -1072.64c-21.5,-43.13 -3.95,-95.57 39.19,-117.08l2.36 -1.19c43.15,-21.5 95.59,-3.96 117.1,39.19l534.8 1072.62c21.5,43.16 3.96,95.59 -39.19,117.11z"/>
  <path class="fil0" d="M2165.25 13270.49l-2.36 -1.18c-43.16,-21.52 -60.7,-73.96 -39.19,-117.1l534.8 -1072.64c21.5,-43.14 73.94,-60.68 117.09,-39.17l2.38 1.17c43.13,21.52 60.68,73.96 39.17,117.1l-534.79 1072.64c-21.52,43.14 -73.96,60.69 -117.1,39.17z"/>
  <path class="fil0" d="M2289.77 13190.77l0 2.65c0.01,48.22 -39.09,87.32 -87.3,87.32l-502.72 -0.01c-48.2,0.01 -87.3,-39.09 -87.3,-87.3l-0.02 -2.66c0.02,-48.2 39.12,-87.3 87.33,-87.3l502.69 -0.01c48.23,0.01 87.33,39.11 87.33,87.32z"/>
  <path class="fil0" d="M3861.38 13190.77l0 2.65c0.02,48.21 -39.08,87.31 -87.29,87.31l-502.72 0c-48.19,0 -87.29,-39.1 -87.29,-87.31l-0.02 -2.65c0.02,-48.21 39.12,-87.31 87.33,-87.31l502.68 0c48.23,0 87.33,39.1 87.33,87.31z"/>
  <path class="fil0" d="M2619.08 10945.31l-2.37 1.18c-43.14,21.52 -95.58,3.98 -117.09,-39.17l-377.78 -757.72c-21.51,-43.14 -3.97,-95.58 39.18,-117.09l2.36 -1.19c43.14,-21.5 95.58,-3.95 117.09,39.19l377.79 757.7c21.51,43.16 3.96,95.6 -39.18,117.11z"/>
  <path class="fil0" d="M2865.33 10945.44l-2.37 -1.18c-43.15,-21.51 -60.69,-73.95 -39.18,-117.1l375.42 -752.97c21.51,-43.14 73.95,-60.69 117.09,-39.18l2.38 1.18c43.14,21.52 60.68,73.96 39.17,117.1l-375.41 752.97c-21.52,43.15 -73.95,60.69 -117.1,39.18z"/>
  <path class="fil0" d="M2164.79 12568.76l-2.36 -1.18c-43.15,-21.51 -60.7,-73.95 -39.19,-117.09l377.79 -757.72c21.51,-43.14 73.95,-60.69 117.09,-39.18l2.37 1.18c43.14,21.51 60.68,73.95 39.17,117.1l-377.77 757.71c-21.52,43.14 -73.96,60.69 -117.1,39.18z"/>
  <path class="fil0" d="M3317.26 12563.9l-2.37 1.18c-43.15,21.51 -95.59,3.96 -117.1,-39.18l-375.42 -752.98c-21.51,-43.14 -3.96,-95.57 39.18,-117.09l2.37 -1.19c43.15,-21.5 95.59,-3.95 117.1,39.19l375.42 752.97c21.51,43.15 3.96,95.59 -39.18,117.1z"/>
  <path class="fil0" d="M2988.27 10865.1l0 2.64c0,48.22 -39.1,87.32 -87.31,87.32l-325.44 -0.01c-48.21,0.01 -87.31,-39.09 -87.31,-87.3l-0.01 -2.65c0.01,-48.2 39.11,-87.3 87.32,-87.3l325.43 -0.02c48.22,0.02 87.32,39.12 87.32,87.33z"/>
  <path class="fil0" d="M2990.91 11732.92l0 2.64c0.02,48.22 -39.08,87.32 -87.29,87.32l-325.46 0c-48.19,0 -87.29,-39.1 -87.29,-87.31l-0.02 -2.65c0.02,-48.2 39.12,-87.3 87.33,-87.3l325.42 -0.01c48.23,0.01 87.33,39.11 87.33,87.32z"/>
  <path class="fil1" d="M5829.88 11333.4l0 -2066.39 1023.94 0c240.77,0 441.85,34.4 605.9,103.19 164.03,68.79 288.39,179.92 373.05,333.38 84.67,153.46 129.65,354.54 129.65,608.54 0,254 -92.6,613.83 -280.46,775.23 -187.84,161.4 -463.01,243.41 -828.14,243.41l-1023.94 -0.01 0 2.65zm590.02 -396.87l351.9 0c127,0 232.83,-15.88 320.15,-50.27 87.31,-34.4 153.46,-95.25 198.44,-185.21 44.98,-89.96 68.79,-219.6 68.79,-388.94 0,-169.34 -21.17,-304.27 -60.85,-396.88 -39.69,-92.6 -103.19,-158.75 -190.5,-195.79 -87.31,-37.04 -198.44,-55.56 -336.02,-55.56l-351.91 0.01 0 1270 0 2.64z"/>
  <path class="fil1" d="M3715.86 11333.4l793.75 -2053.16 560.92 0 793.75 2053.16 -439.21 0c-60.85,0 -116.42,-37.04 -140.23,-95.24l-148.17 -370.42 -693.21 0 -145.52 370.42c-23.81,58.2 -76.73,95.24 -140.23,95.24l-439.2 0 -2.65 0zm796.4 -844.01l550.33 0 -277.81 -714.38 -275.17 714.38 2.65 0z"/>
  <path class="fil0" d="M3771.42 9280.24l2.65 0c48.22,0 87.32,39.1 87.32,87.31l-0.01 3823.22c0.01,48.2 -39.09,87.3 -87.3,87.3l-2.66 0.02c-48.2,-0.02 -87.3,-39.12 -87.3,-87.33l-0.01 -3823.21c0.01,-48.21 39.11,-87.31 87.32,-87.31z"/>
  <rect class="fil0" x="1702.39" y="9391.36" width="500.06" height="3799.41"/>
  <rect class="fil0" x="3274.02" y="9370.2" width="500.06" height="3799.41"/>
  <polygon class="fil0" points="2919.47,10865.1 2519.95,10801.6 3313.7,9335.8 3760.84,9542.18 "/>
  <polygon class="fil0" points="2564.93,10846.57 2961.81,10777.78 2191.87,9356.97 1744.72,9560.7 "/>
  <polygon class="fil0" points="2900.95,11711.75 2504.08,11775.25 3297.83,13196.06 3744.96,12997.63 "/>
  <polygon class="fil0" points="2578.16,11722.34 2977.68,11783.19 2183.93,13204 1736.79,13005.56 "/>
  <path class="fil1" d="M6393.53 12270.82l0 0c-17.72,10.22 -40.38,4.15 -50.6,-13.56l-607.21 -1051.72c-10.23,-17.69 -4.16,-40.36 13.55,-50.58l0 -0.02c17.71,-10.21 40.38,-4.13 50.6,13.58l607.22 1051.7c10.22,17.71 4.14,40.37 -13.57,50.59z"/>
  <path class="fil1" d="M6389.64 12206.2l0 0c17.71,10.21 23.78,32.87 13.56,50.58l-590.02 1021.96c-10.23,17.7 -32.89,23.77 -50.6,13.54l0 0.02c-17.71,-10.24 -23.78,-32.9 -13.56,-50.61l590.02 -1021.94c10.23,-17.72 32.89,-23.79 50.6,-13.57z"/>
  <path class="fil1" d="M6727.72 12793.52l0 0c17.71,10.21 23.78,32.87 13.55,50.58l-252.67 437.67c-10.23,17.7 -32.89,23.77 -50.6,13.54l0 0.02c-17.71,-10.24 -23.79,-32.9 -13.56,-50.61l252.68 -437.64c10.22,-17.73 32.89,-23.8 50.6,-13.58z"/>
  <path class="fil1" d="M6264.49 10898.14l0 0c17.7,-10.22 40.37,-4.15 50.59,13.56l427.31 740.09c10.22,17.71 4.14,40.37 -13.57,50.59l0.01 0.01c-17.72,10.22 -40.38,4.15 -50.6,-13.57l-427.3 -740.08c-10.23,-17.71 -4.16,-40.37 13.55,-50.6z"/>
  <path class="fil1" d="M6493.99 13262.21l0 0c0,20.44 -16.59,37.03 -37.04,37.03l-674.69 0.01c-20.45,-0.01 -37.04,-16.6 -37.04,-37.05l-0.01 0.01c0.01,-20.46 16.6,-37.05 37.05,-37.05l674.68 0.01c20.46,-0.01 37.05,16.58 37.05,37.03z"/>
  <line class="fil2 str0" x1="6706.93" y1="12825.36" x2="8173.32" y2= "15747.3" />
  <line class="fil2 str0" x1="7012.61" y1="12234.65" x2="10459.76" y2= "14200.63" />
 </g>
</svg>
