<?xml version="1.0" encoding="UTF-8"?>
<svg id="Warstwa_1" xmlns="http://www.w3.org/2000/svg" version="1.1" viewBox="0 0 85 60">
  <!-- Generator: Adobe Illustrator 29.1.0, SVG Export Plug-In . SVG Version: 2.1.0 Build 142)  -->
  <path d="M24,46h11.6v8.7h26V14h-11.6V5.3h-26v40.7ZM44.3,46l-5.8,4.3v-4.3h5.8ZM58.7,16.9v34.9h-17.4l8.7-6.5v-28.4h8.7ZM26.9,8.2h20.3v34.9h-20.3V8.2Z"/>
  <path d="M37,11.1c-4,0-7.2,3.2-7.2,7.2s3.2,7.2,7.2,7.2,7.2-3.2,7.2-7.2-3.2-7.2-7.2-7.2ZM37,22.7c-2.4,0-4.3-1.9-4.3-4.3s1.9-4.3,4.3-4.3,4.3,1.9,4.3,4.3-1.9,4.3-4.3,4.3Z"/>
  <path d="M29.8,28.4h14.5v2.9h-14.5v-2.9Z"/>
  <path d="M29.8,34.2h14.5v2.9h-14.5v-2.9Z"/>
</svg>