<?xml version="1.0" encoding="UTF-8"?>
<svg id="Warstwa_1" xmlns="http://www.w3.org/2000/svg" version="1.1" viewBox="0 0 85 60">
  <!-- Generator: Adobe Illustrator 29.1.0, SVG Export Plug-In . SVG Version: 2.1.0 Build 142)  -->
  <path d="M76.2,47.6l-5.4-7.2V10.2c0-4-3.3-7.3-7.3-7.3H22.5c-4,0-7.3,3.3-7.3,7.3v30.2l-5.4,7.2c-1.1,1.4-1.2,3.3-.4,4.9.8,1.6,2.4,2.6,4.2,2.6h58.9c1.8,0,3.4-1,4.2-2.6.8-1.6.6-3.5-.4-4.9h0ZM19.2,10.2c0-1.8,1.5-3.3,3.3-3.3h41c1.8,0,3.3,1.5,3.3,3.3v28.9H19.2V10.2ZM73,50.7c0,.1-.2.4-.6.4H13.5c-.4,0-.5-.2-.6-.4,0-.1-.2-.4,0-.7l5.2-6.9h49.7l5.2,6.9c.2.3.1.6,0,.7h0Z"/>
</svg>