<?xml version="1.0" encoding="UTF-8"?>
<svg id="Warstwa_1" xmlns="http://www.w3.org/2000/svg" version="1.1" viewBox="0 0 85 60">
  <!-- Generator: Adobe Illustrator 29.1.0, SVG Export Plug-In . SVG Version: 2.1.0 Build 142)  -->
  <path d="M57.5,30.3c-.9-.7-2.2-.5-2.9.4-1.1,1.5-2.5,2.7-3.8,4-2,1.9-3.9,3.7-4.7,6h-9.4c-.8-2.3-2.7-4.1-4.7-6-3.2-3-6.6-6.2-6.6-12.3s1.6-8.1,4.6-11.1c3-3,7-4.6,11.2-4.6s0,0,.1,0h0c1.1,0,2-.9,2-2,0-1.1-.9-2.1-2-2.1-5.4,0-10.4,2-14.2,5.8-3.8,3.7-5.8,8.7-5.8,14,0,7.9,4.5,12.2,7.9,15.3,2.3,2.2,3.7,3.6,3.7,5.1v6c0,3.4,2.8,6.1,6.1,6.1h4.6c3.4,0,6.1-2.8,6.1-6.1v-5.9c0,0,0-.1,0-.2,0-1.6,1.4-3,3.7-5.1,1.3-1.3,2.9-2.7,4.2-4.5.7-.9.5-2.2-.4-2.9ZM43.8,50.8h-4.6c-1.1,0-2-.9-2-2v-4.1h8.7v4.1c0,1.1-.9,2-2,2ZM39.1,14.9c-3.2,1-5.4,4-5.4,7.3s-.9,2-2,2-2-.9-2-2c0-5.2,3.3-9.7,8.3-11.3,1.1-.3,2.2.3,2.6,1.3s-.3,2.2-1.3,2.6ZM66.9,15.8l-2-1.4c0-.1,0-.2,0-.3s0-.2,0-.4c0,0,0,0,0-.1,0,0,0,0,0-.1l2-1.6c.8-.6,1-1.7.6-2.6l-.9-1.7c-.5-.9-1.5-1.3-2.5-1l-2.4.9c-.3-.2-.6-.4-1-.6,0,0,0,0,0,0,0,0-.2,0-.3-.1,0,0,0,0-.1,0,0,0,0,0-.1,0l-.4-2.4c-.2-1-1-1.7-2-1.7h-1.9c-1,0-1.9.8-2,1.8l-.3,2.3c-.6.3-1.2.6-1.7,1l-2.4-.7c-1-.3-2,.1-2.4,1l-.9,1.8c-.5.9-.2,2,.7,2.6l1.9,1.3c0,.1,0,.3,0,.4s0,.3,0,.4c0,0,0,0,0,.1,0,0,0,0,0,.1l-2,1.6c-.8.6-1,1.8-.5,2.7l1,1.6c.5.8,1.5,1.2,2.5.9l2.2-.8c.5.4,1,.7,1.6.9l.4,2.4c.2,1,1,1.7,2,1.7h1.8c1,0,1.9-.7,2-1.7l.4-2.4c.7-.3,1.3-.7,1.9-1.2l2.3.7c.9.3,2-.2,2.4-1l.8-1.6c.5-.9.2-2-.6-2.6ZM52.7,13.8s0,0,0,0c0,0,0-.1,0-.2,0,0,0,0,0,0,0,0,0-.1,0-.2,0,0,0,0,0,0,0,0,0-.1,0-.2.2-.7.5-1.4,1.1-1.9,0,0,0,0,0,0,0,0,0,0,.1-.1,0,0,0,0,0,0,0,0,.2-.1.3-.2,0,0,0,0,0,0,0,0,.1,0,.2-.1h0c.1,0,.2-.1.3-.2,0,0,0,0,0,0,0,0,.1,0,.2,0,0,0,0,0,0,0,0,0,.2,0,.3-.1,0,0,0,0,.1,0,0,0,0,0,.1,0,0,0,.1,0,.2,0,.3,0,.7-.1,1.1-.1s.7,0,1.1.1c0,0,.1,0,.2,0,0,0,0,0,0,0,0,0,.1,0,.2,0,0,0,0,0,.1,0,0,0,.1,0,.2,0,0,0,0,0,.1,0,0,0,0,0,.1,0,0,0,0,0,0,0,0,0,.1,0,.2.1,0,0,0,0,0,0,0,0,0,0,.1,0,0,0,0,0,0,0,0,0,.1.1.2.2,0,0,0,0,0,0,0,0,0,0,.1.1.5.5.9,1.2,1,1.9,0,0,0,.1,0,.2,0,0,0,0,0,0,0,0,0,.1,0,.2,0,0,0,0,0,0,0,0,0,.1,0,.2,0,0,0,0,0,0,0,0,0,.2,0,.2,0,.1,0,.3,0,.4,0,0,0,0,0,0,0,0,0,.1,0,.2,0,0,0,0,0,0,0,0,0,0,0,.1-.1.7-.5,1.3-.9,1.9,0,0-.1.1-.2.2,0,0,0,0,0,0,0,0,0,0-.2.1,0,0,0,0,0,0,0,0-.1,0-.2.1,0,0,0,0-.1,0,0,0,0,0,0,0,0,0-.1,0-.2.1,0,0,0,0-.1,0,0,0,0,0-.1,0,0,0,0,0-.1,0,0,0,0,0-.1,0,0,0-.1,0-.2,0,0,0,0,0,0,0,0,0-.2,0-.3,0-.3,0-.7.1-1,.1s-.7,0-1.1-.2c0,0-.1,0-.2,0,0,0,0,0-.1,0,0,0,0,0-.1,0,0,0-.1,0-.2,0,0,0,0,0-.1,0,0,0,0,0-.1,0,0,0,0,0-.1,0,0,0-.1,0-.2-.1,0,0,0,0-.1,0,0,0,0,0-.1,0,0,0,0,0-.1,0,0,0,0,0,0,0,0,0-.1,0-.2-.1,0,0,0,0,0,0,0,0,0,0-.1-.1-.5-.5-.9-1.2-1-1.9,0,0,0-.1,0-.2,0,0,0,0,0,0,0,0,0-.1,0-.2,0,0,0,0,0,0,0,0,0-.1,0-.2,0,0,0,0,0,0,0,0,0-.2,0-.2,0,0,0-.2,0-.2ZM35.3,26.8c1.1,0,2,.9,2,2s-.9,2-2,2-2-.9-2-2,.9-2,2-2Z"/>
</svg>