<?xml version="1.0" encoding="UTF-8"?>
<svg id="Warstwa_1" xmlns="http://www.w3.org/2000/svg" version="1.1" viewBox="0 0 85 60">
  <!-- Generator: Adobe Illustrator 29.1.0, SVG Export Plug-In . SVG Version: 2.1.0 Build 142)  -->
  <defs>
    <style>
      .st0 {
        fill-rule: evenodd;
      }
    </style>
  </defs>
  <path class="st0" d="M42.3,55.5c.4,0,.7,0,1.1,0,4.1,0,8.1-.9,11.6-2.6-.4-.4-.8-.8-1.2-1.3-2.5-2.6-4-5.9-4.9-8.9-.5-1.8-.5-5.4-1.4-8.6-.4-1.3-.8-2.6-1.9-3.3-.6-.4-1.4-.5-2.4-.4-2.5.3-3.3,2.1-3.5,4.2-.3,2.9.3,6.4.7,8.9.3,1.8.8,5.2,1.3,8.8.2,1.2.4,2.2.6,3.1h0ZM33.8,53.8c1.3.5,2.7.9,4.1,1.2-.1-.6-.2-1.2-.3-1.9-.5-3.6-1-7-1.3-8.8-.5-3.5-1.4-8.5-.3-12.1.9-3,2.8-5.3,6.7-5.7,4.3-.5,6.6,1.6,7.9,4.6.8,1.8,1.2,4.1,1.4,6.2.2,1.7.3,3.4.6,4.3.7,2.4,2,5.1,4,7.2.8.8,1.4,1.5,1.9,1.9,1.2-.8,2.2-1.7,3.3-2.7-.6-.4-1.1-.8-1.6-1.2-2-1.7-3.2-4.2-3.8-6.3-.7-2.3-.6-7.4-2.2-11-2-4.6-5.5-7.7-12-6.9-5.8.7-8.8,4.1-10,8.6-1.2,4.1-.4,9.8.2,13.7.2,1.1.4,2.7.7,4.6.3,1.8.5,3.2.8,4.3h0ZM24.7,47.9c1.4,1.4,2.9,2.6,4.6,3.6,0-.5-.1-.9-.2-1.4-.3-1.9-.5-3.6-.7-4.6-.7-4.5-1.4-10.8-.1-15.4,1.7-6.1,5.6-10.6,13.5-11.5,8.7-1,13.5,3.2,16.2,9.3,1.6,3.7,1.7,9.1,2.4,11.5.4,1.4,1.2,3.2,2.6,4.4.5.4,1.1.9,1.7,1.3.7-.9,1.3-1.8,1.8-2.7-.8-.9-1.6-2-2.2-3.4,0-.2-.2-.4-.2-.6-.7-2.5-.8-8-2.5-11.9-3.4-7.6-9.3-12.9-20.2-11.6-9.7,1.1-14.6,6.8-16.7,14.3-1,3.4-.9,7.7-.6,11.6.1,1.3.5,4.9.7,7.3h0ZM19.9,41.6c0-.2,0-.4,0-.6-.4-4.4-.3-9.2.8-13.1,2.6-9.1,8.4-15.9,20.2-17.2,13.1-1.5,20.3,4.8,24.4,14,1.8,4,2,9.8,2.7,12.4,0,0,0,0,0,.2.1.3.2.5.4.8,1-2.8,1.6-5.9,1.6-9,0-14.7-11.9-26.6-26.6-26.6s-26.6,11.9-26.6,26.6,1.2,8.9,3.2,12.6h0Z"/>
</svg>