<?xml version="1.0" encoding="UTF-8"?>
<svg id="Warstwa_1" xmlns="http://www.w3.org/2000/svg" version="1.1" viewBox="0 0 85 60">
  <!-- Generator: Adobe Illustrator 29.1.0, SVG Export Plug-In . SVG Version: 2.1.0 Build 142)  -->
  <path d="M23.9,1.3h-6.8c-.9,0-1.7.8-1.7,1.7v6.9c0,.9.8,1.7,1.7,1.7s1.7-.8,1.7-1.7v-5.2h5.1c.9,0,1.7-.8,1.7-1.7,0-.9-.8-1.7-1.7-1.7Z"/>
  <path d="M71.6,1.3h-6.8c-.9,0-1.7.8-1.7,1.7s.8,1.7,1.7,1.7h5.1v5.2c0,.9.8,1.7,1.7,1.7s1.7-.8,1.7-1.7V3c0-.9-.8-1.7-1.7-1.7Z"/>
  <path d="M23.9,55.8h-5.1v-5.2c0-.9-.8-1.7-1.7-1.7s-1.7.8-1.7,1.7v6.9c0,.9.8,1.7,1.7,1.7h6.8c.9,0,1.7-.8,1.7-1.7,0-.9-.8-1.7-1.7-1.7Z"/>
  <path d="M71.6,48.9c-.9,0-1.7.8-1.7,1.7v5.2h-5.1c-.9,0-1.7.8-1.7,1.7s.8,1.7,1.7,1.7h6.8c.9,0,1.7-.8,1.7-1.7v-6.9c0-.9-.8-1.7-1.7-1.7Z"/>
  <path d="M68.8,15.2L45.2,1.6c-.5-.3-1.2-.3-1.7,0l-23.6,13.7c-.5.3-.8.9-.8,1.5s0,0,0,0v27.1c0,.6.3,1.2.9,1.5l23.6,13.7c.3.1.6.2.8.2s.6,0,.8-.2l23.6-13.7s0,0,0,0c.5-.4.8-.7.8-1.4,0,0,0,0,0,0v-27.1s0,0,0,0c0-.6-.3-1.2-.8-1.5ZM42.6,54.6l-18.5-10.7,14.3-8.2c.8-.5,1.1-1.5.6-2.3-.5-.8-1.5-1.1-2.3-.6l-14.3,8.2v-21.3l20.2,11.6v23.3ZM44.3,28.3l-20.2-11.6,20.2-11.7,20.2,11.7-20.2,11.6ZM66.3,40.9l-14.3-8.2c-.8-.5-1.8-.2-2.3.6-.5.8-.2,1.8.6,2.3l14.3,8.2-18.5,10.7v-23.3l20.2-11.6v21.3h0Z"/>
</svg>