<?xml version="1.0" encoding="UTF-8"?>
<svg id="Warstwa_1" xmlns="http://www.w3.org/2000/svg" version="1.1" viewBox="0 0 85 60">
  <!-- Generator: Adobe Illustrator 29.1.0, SVG Export Plug-In . SVG Version: 2.1.0 Build 142)  -->
  <g>
    <path d="M61.5,9.2c0,10,0,16,0,26s0,.8.2,1.1c1.1,3.3,2.2,6.7,3.3,10,0,.3.2.6.4.7.3.4.6.4.8,0,.1-.2.3-.6.4-.8,1-2.8,1.9-5.6,2.9-8.4.3-1,.7-2,.7-3.1,0-9.7,0-15.5,0-25.2v-.3c-2.9,0-5.8,0-8.7,0s0,0,0,0h0ZM68.4,35.5c0,.2-.1.4-.2.6-.5,1.4-1,2.8-1.4,4.1,0,.3-.2.4-.5.4-.4,0-.8,0-1.2,0,0,0-.3-.1-.3-.2-.6-1.6-1.1-3.2-1.6-4.8h0c1.7-.1,3.4,0,5.2,0Z"/>
    <path d="M70.2,6.7c-2.9,0-5.8,0-8.7,0,0,0,0-.1,0-.2v-3.3c0-1.3.7-2.2,1.8-2.2h5c1.1,0,1.8.9,1.8,2.2,0,1.2,0,2.4,0,3.6Z"/>
  </g>
  <g>
    <path d="M18.2,12.6h38.7v4.7H18.2v-4.7Z"/>
    <path d="M18.2,25.9h11.6v4.7h-11.6v-4.7Z"/>
    <path d="M34.2,25.9h22.7v4.7h-22.7v-4.7Z"/>
    <path d="M18.2,39.3h38.7v4.7H18.2v-4.7Z"/>
    <path d="M36,52.6h34.2v4.7h-34.2v-4.7Z"/>
    <path d="M18.2,52.6h11.3v4.7h-11.3v-4.7Z"/>
  </g>
</svg>