<?xml version="1.0" encoding="UTF-8"?>
<svg id="Warstwa_1" xmlns="http://www.w3.org/2000/svg" version="1.1" viewBox="0 0 85 60">
  <!-- Generator: Adobe Illustrator 29.1.0, SVG Export Plug-In . SVG Version: 2.1.0 Build 142)  -->
  <g id="Packaging">
    <path d="M58.2,59.8l3.3-3.8,3.1-1.9c.2-.1.4-.4.4-.6v-9.7c0-.3-.1-.5-.4-.6l-.9-.6c11.6,0,11,0,11.2,0s-.2.2,4.1-3.5c.2-.1.3-.4.3-.6v-16.2c0-.2,0-.4-.3-.6-4.5-3.8-4-3.4-4.2-3.5s.3,0-11.2,0l.9-.6c.2-.1.4-.4.4-.6V7.2c0-.3-.1-.5-.4-.6l-3.1-1.9-3.3-3.8c-.1-.2-.4-.3-.6-.3h-16.2c-.2,0-.4,0-.6.3l-3.3,3.8-3.1,1.9c-.2.1-.4.4-.4.6v9.6c0,.3.1.5.4.6l.9.6h-10.5l-1.8-2.8c-.1-.2-.4-.4-.6-.4h-9.6c-.3,0-.5.1-.6.4l-1.9,3.1-3.8,3.3c-.2.1-.3.4-.3.6v16.2c0,.2,0,.4.3.6l3.8,3.3,1.9,3.1c.1.2.4.4.6.4h9.6c.3,0,.5-.1.6-.4l1.8-2.8h10.5l-.9.6c-.2.1-.4.4-.4.6v9.6c0,.3.1.5.4.6l3.1,1.9,3.3,3.8c.1.2.4.3.6.3h16.2c.2,0,.4,0,.6-.2ZM25.2,40.2c0-.4-.3-.8-.8-.8s-.8.3-.8.8v.8h-12.1v-21.4h12.1v.8c0,.4.3.8.8.8s.8-.3.8-.8v-.8h12.1v.8c0,.4.3.8.8.8s.8-.3.8-.8v-.8h.8c.4,0,.8-.3.8-.8s-.3-.8-.8-.8h-.8V6h21.4v12.1h-.8c-.4,0-.8.3-.8.8s.3.8.8.8h.8v.8c0,.4.3.8.8.8s.8-.3.8-.8v-.8h12.1v21.4h-12.1v-.8c0-.4-.3-.8-.8-.8s-.8.3-.8.8v.8h-.8c-.4,0-.8.3-.8.8s.3.8.8.8h.8v12.1h-21.4v-12.1h.8c.4,0,.8-.3.8-.8s-.3-.8-.8-.8h-.8v-.8c0-.4-.3-.8-.8-.8s-.8.3-.8.8v.8h-12.1v-.8ZM63.5,44.2v8.8l-1.7,1v-10.9l1.7,1ZM77.8,22.5v15.5l-2.4,2v-19.6l2.4,2ZM63.5,7.6v8.8l-1.7,1V6.6l1.7,1ZM39.7,4.4l2-2.4h15.6l2,2.4h-19.7ZM35.6,16.4V7.6l1.7-1v10.9l-1.7-1ZM22.1,16.4l1,1.7h-10.8l1-1.7h8.8ZM7.7,38v-15.5l2.4-2v19.6l-2.4-2ZM22.1,44.2h-8.8l-1-1.7h10.9l-1,1.7ZM35.6,52.9v-8.8l1.7-1v10.9l-1.7-1ZM41.8,58.5l-2.1-2.4h19.7l-2,2.4h-15.5Z"/>
    <path d="M41.7,41.7c0,.4.3.8.8.8h2.8c.4,0,.8-.3.8-.8s-.3-.8-.8-.8h-2.8c-.4,0-.8.3-.8.8Z"/>
    <path d="M53,41.7c0,.4.3.8.8.8h2.8c.4,0,.8-.3.8-.8s-.3-.8-.8-.8h-2.8c-.4,0-.8.3-.8.8Z"/>
    <path d="M47.3,41.7c0,.4.3.8.8.8h2.9c.4,0,.8-.3.8-.8s-.3-.8-.8-.8h-2.9c-.4,0-.8.3-.8.8Z"/>
    <path d="M51.7,18.8c0-.4-.3-.8-.8-.8h-2.9c-.4,0-.8.3-.8.8s.3.8.8.8h2.9c.4,0,.8-.3.8-.8Z"/>
    <path d="M57.4,18.8c0-.4-.3-.8-.8-.8h-2.8c-.4,0-.8.3-.8.8s.3.8.8.8h2.8c.4,0,.8-.3.8-.8Z"/>
    <path d="M46,18.8c0-.4-.3-.8-.8-.8h-2.8c-.4,0-.8.3-.8.8s.3.8.8.8h2.8c.4,0,.8-.3.8-.8Z"/>
    <path d="M38.8,31.7v-2.8c0-.4-.3-.8-.8-.8s-.8.3-.8.8v2.8c0,.4.3.8.8.8s.8-.3.8-.8Z"/>
    <path d="M38.8,37.4v-2.8c0-.4-.3-.8-.8-.8s-.8.3-.8.8v2.8c0,.4.3.8.8.8s.8-.3.8-.8Z"/>
    <path d="M38.8,26v-2.8c0-.4-.3-.8-.8-.8s-.8.3-.8.8v2.8c0,.4.3.8.8.8s.8-.3.8-.8Z"/>
    <path d="M25.2,37.4v-2.8c0-.4-.3-.8-.8-.8s-.8.3-.8.8v2.8c0,.4.3.8.8.8s.8-.3.8-.8Z"/>
    <path d="M25.2,26v-2.8c0-.4-.3-.8-.8-.8s-.8.3-.8.8v2.8c0,.4.3.8.8.8s.8-.3.8-.8Z"/>
    <path d="M25.2,31.7v-2.8c0-.4-.3-.8-.8-.8s-.8.3-.8.8v2.8c0,.4.3.8.8.8s.8-.3.8-.8Z"/>
    <path d="M61.8,37.4v-2.8c0-.4-.3-.8-.8-.8s-.8.3-.8.8v2.8c0,.4.3.8.8.8s.8-.3.8-.8Z"/>
    <path d="M61.8,31.7v-2.8c0-.4-.3-.8-.8-.8s-.8.3-.8.8v2.8c0,.4.3.8.8.8s.8-.3.8-.8Z"/>
    <path d="M61.8,26v-2.8c0-.4-.3-.8-.8-.8s-.8.3-.8.8v2.8c0,.4.3.8.8.8s.8-.3.8-.8Z"/>
  </g>
</svg>