<?xml version="1.0" encoding="UTF-8"?>
<svg id="Warstwa_1" xmlns="http://www.w3.org/2000/svg" version="1.1" viewBox="0 0 85 60">
  <!-- Generator: Adobe Illustrator 29.1.0, SVG Export Plug-In . SVG Version: 2.1.0 Build 142)  -->
  <path d="M34.9,4.6h-14.9c-2.3,0-4.3,1.9-4.3,4.3v14.9c0,2.3,1.9,4.3,4.3,4.3h14.9c2.3,0,4.3-1.9,4.3-4.3v-14.9c0-2.3-1.9-4.3-4.3-4.3ZM34.9,23.7h-14.9v-14.9h14.9v14.9Z"/>
  <path d="M34.9,32.3h-14.9c-2.3,0-4.3,1.9-4.3,4.3v14.9c0,2.3,1.9,4.3,4.3,4.3h14.9c2.3,0,4.3-1.9,4.3-4.3v-14.9c0-2.3-1.9-4.3-4.3-4.3ZM34.9,51.4h-14.9v-14.9h14.9v14.9Z"/>
  <path d="M43.4,4.6h10.6v4.3h-10.6v-4.3Z"/>
  <path d="M43.4,21.6h14.9v4.3h-14.9v-4.3Z"/>
  <path d="M43.4,13.1h23.4v4.3h-23.4v-4.3Z"/>
  <path d="M43.4,32.3h23.4v4.3h-23.4v-4.3Z"/>
  <path d="M43.4,49.3h14.9v4.3h-14.9v-4.3Z"/>
  <path d="M43.4,40.8h10.6v4.3h-10.6v-4.3Z"/>
</svg>