<?xml version="1.0" encoding="UTF-8"?>
<svg id="Warstwa_1" xmlns="http://www.w3.org/2000/svg" version="1.1" viewBox="0 0 85 60">
  <!-- Generator: Adobe Illustrator 29.1.0, SVG Export Plug-In . SVG Version: 2.1.0 Build 142)  -->
  <g id="megaphone">
    <path d="M40.1,5.8c-.4-.4-1-.6-1.6-.5-.6,0-1.1.5-1.4,1l-12,22.7-6.5,6.5c-2,2-2.6,4.9-1.9,7.4-2.4,3-2.2,7.3.6,10.1,1.5,1.5,3.4,2.2,5.4,2.2s3.3-.6,4.7-1.7c.7.2,1.4.3,2,.3,1.3,0,2.7-.4,3.9-1.1l4.9,4.9c.9.9,2.2,1.4,3.4,1.4s2.4-.5,3.4-1.4c1.9-1.9,1.9-4.9,0-6.7l-4.7-4.7,1.1-1.1,22.7-12c.5-.3.9-.8,1-1.4,0-.6-.1-1.2-.5-1.6L40.1,5.8ZM19.9,50.3c-1-1-1.3-2.4-1-3.7l4.6,4.6c-1.3.3-2.7,0-3.7-1ZM26.6,49l-5.4-5.4c-1.5-1.5-1.5-3.9,0-5.4l5.4-5.4,10.8,10.8-5.4,5.4c-1.5,1.5-3.9,1.5-5.4,0ZM42.1,53.7c.2.2.3.5.3.7s0,.4-.3.7c-.4.4-1,.4-1.4,0l-4.7-4.7,1.4-1.4,4.7,4.7ZM40.5,41.2l-11.5-11.5,10.3-19.4,20.6,20.6-19.4,10.3ZM47.4,7.6v-3.8c0-1.1.9-1.9,1.9-1.9s1.9.9,1.9,1.9v3.8c0,1.1-.9,1.9-1.9,1.9s-1.9-.9-1.9-1.9ZM68.4,21c0,1.1-.9,1.9-1.9,1.9h-3.8c-1.1,0-1.9-.9-1.9-1.9s.9-1.9,1.9-1.9h3.8c1.1,0,1.9.9,1.9,1.9ZM55.6,14.7c-.7-.7-.7-2,0-2.7l3.8-3.8c.7-.7,2-.7,2.7,0s.7,2,0,2.7l-3.8,3.8c-.4.4-.9.6-1.3.6s-1-.2-1.3-.6Z"/>
  </g>
</svg>