<?xml version="1.0" encoding="UTF-8"?>
<svg id="Warstwa_1" xmlns="http://www.w3.org/2000/svg" version="1.1" viewBox="0 0 85 60">
  <!-- Generator: Adobe Illustrator 29.1.0, SVG Export Plug-In . SVG Version: 2.1.0 Build 142)  -->
  <defs>
    <style>
      .st0 {
        stroke: #000;
        stroke-miterlimit: 10;
        stroke-width: .2px;
      }
    </style>
  </defs>
  <g>
    <path class="st0" d="M46.8,45.5H15.8l-3-3V3.7l3-3h53.8l3,3v16.1h-3.7V5.2l-.7-.7H17.3l-.7.7v35.8l.7.7h29.5v3.7Z"/>
    <path class="st0" d="M14.7,34.3h31.7v3.7H14.7v-3.7Z"/>
    <path class="st0" d="M33.3,43.7h3.7v7.5h-3.7v-7.5Z"/>
    <path class="st0" d="M29.6,49.3h16.8v3.7h-16.8v-3.7Z"/>
    <path class="st0" d="M69.5,58.6h-16.4l-3-3v-27.6l3-3h16.4l3,3v27.6l-3,3ZM54.6,54.9h13.4l.7-.7v-24.6l-.7-.7h-13.4l-.7.7v24.6l.7.7Z"/>
  </g>
  <path d="M59.5,47.4h3.7v3.7h-3.7v-3.7Z"/>
</svg>