<?xml version="1.0" encoding="UTF-8"?>
<svg id="Warstwa_1" xmlns="http://www.w3.org/2000/svg" version="1.1" viewBox="0 0 246.5 159.9">
  <!-- Generator: Adobe Illustrator 29.1.0, SVG Export Plug-In . SVG Version: 2.1.0 Build 142)  -->
  <defs>
    <style>
      .st0 {
        fill: #1857d5;
      }

      .st1 {
        fill: #fff;
      }
    </style>
  </defs>
  <rect class="st0" x="120.3" y="141" width="6.7" height="25.6" rx="3.3" ry="3.3" transform="translate(277.5 30.2) rotate(90)"/>
  <rect class="st0" x="120.3" y="98" width="6.7" height="26.6" rx="3.3" ry="3.3" transform="translate(234.9 -12.4) rotate(90)"/>
  <rect class="st0" x="120.3" y="81.6" width="6.7" height="31.8" rx="3.3" ry="3.3" transform="translate(221.2 -26.1) rotate(90)"/>
  <rect class="st0" x="96.3" y="77.1" width="6.7" height="82.8" rx="3.3" ry="3.3" transform="translate(236.8 190.2) rotate(157.7)"/>
  <rect class="st0" x="144.5" y="75.8" width="6.7" height="84.2" rx="3.3" ry="3.3" transform="translate(239.8 283.2) rotate(-157.7)"/>
  <rect class="st0" x="103.1" y="71.5" width="6.7" height="30.3" rx="3.3" ry="3.3" transform="translate(238.5 123.9) rotate(156.6)"/>
  <rect class="st0" x="137.7" y="71.2" width="6.7" height="30.6" rx="3.3" ry="3.3" transform="translate(45.9 -48.9) rotate(23.4)"/>
  <rect class="st1" x="220.6" y="62" width="2.8" height="60.5" rx="1.4" ry="1.4" transform="translate(75.9 -98.6) rotate(30)"/>
  <rect class="st1" x="217.3" y="112.8" width="2.8" height="47.4" rx="1.4" ry="1.4" transform="translate(476.5 145.4) rotate(150)"/>
  <rect class="st1" x="199.4" y="136.7" width="2.8" height="21.9" rx="1.4" ry="1.4" transform="translate(448.5 175) rotate(150)"/>
  <rect class="st1" x="201" y="70.4" width="2.8" height="28.5" rx="1.4" ry="1.4" transform="translate(335.4 259.1) rotate(-150)"/>
  <rect class="st1" x="216.4" y="142.4" width="2.8" height="27" rx="1.4" ry="1.4" transform="translate(373.7 -62) rotate(90)"/>
  <polygon class="st0" points="113.8 153.8 83.9 80.2 103.3 80.2 132.6 155.2 113.8 153.8"/>
  <polygon class="st0" points="134 152.1 163.9 78.5 144.5 78.5 115.2 153.6 134 152.1"/>
  <rect class="st0" x="106.4" y="96" width="41.4" height="15.3"/>
  <rect class="st0" x="3.4" y="5.4" width="6.7" height="151.1" rx="3.3" ry="3.3"/>
  <rect class="st0" x="20.3" y="36.4" width="6.7" height="89.6" rx="3.3" ry="3.3"/>
  <rect class="st0" x="64.9" y="36.6" width="6.7" height="89.6" rx="3.3" ry="3.3"/>
  <rect class="st0" x="12.8" y="-4" width="6.7" height="25.6" rx="3.3" ry="3.3" transform="translate(25 -7.4) rotate(90)"/>
  <rect class="st0" x="72.2" y="-4" width="6.7" height="25.6" rx="3.3" ry="3.3" transform="translate(84.3 -66.8) rotate(90)"/>
  <rect class="st0" x="52.7" y="3.1" width="6.7" height="51.9" rx="3.3" ry="3.3" transform="translate(93.2 80) rotate(-153.5)"/>
  <rect class="st0" x="32.4" y="3.1" width="6.7" height="51.9" rx="3.3" ry="3.3" transform="translate(80.7 39.1) rotate(153.5)"/>
  <rect class="st0" x="52.7" y="107" width="6.7" height="51.9" rx="3.3" ry="3.3" transform="translate(165.5 227) rotate(153.5)"/>
  <rect class="st0" x="32.4" y="107" width="6.7" height="51.9" rx="3.3" ry="3.3" transform="translate(8.4 267.9) rotate(-153.5)"/>
  <rect class="st0" x="12.8" y="140.5" width="6.7" height="25.6" rx="3.3" ry="3.3" transform="translate(169.4 137.1) rotate(90)"/>
  <rect class="st0" x="72.2" y="140.5" width="6.7" height="25.6" rx="3.3" ry="3.3" transform="translate(228.8 77.7) rotate(90)"/>
  <rect class="st0" x="29.4" y="31.8" width="6.7" height="38.6" rx="3.3" ry="3.3" transform="translate(84.8 82.2) rotate(153.5)"/>
  <rect class="st0" x="55.9" y="31.9" width="6.7" height="38.4" rx="3.3" ry="3.3" transform="translate(89.4 123.3) rotate(-153.5)"/>
  <rect class="st0" x="29.4" y="93.1" width="6.7" height="38.6" rx="3.3" ry="3.3" transform="translate(11.9 227.6) rotate(-153.5)"/>
  <rect class="st0" x="55.9" y="93.2" width="6.7" height="38.4" rx="3.3" ry="3.3" transform="translate(162.3 186.5) rotate(153.5)"/>
  <rect class="st0" x="42.6" y="55.9" width="6.7" height="18.9" rx="3.3" ry="3.3" transform="translate(111.2 19.4) rotate(90)"/>
  <rect class="st0" x="42.6" y="88.7" width="6.7" height="18.9" rx="3.3" ry="3.3" transform="translate(144.1 52.2) rotate(90)"/>
  <path class="st1" d="M162.7,83V4.9h38.7c9.1,0,16.7,1.3,22.9,3.9,6.2,2.6,10.9,6.8,14.1,12.6,3.2,5.8,4.9,13.4,4.9,23s-3.5,23.2-10.6,29.3c-7.1,6.1-17.5,9.2-31.3,9.2h-38.7ZM185,68h13.3c4.8,0,8.8-.6,12.1-1.9,3.3-1.3,5.8-3.6,7.5-7,1.7-3.4,2.6-8.3,2.6-14.7s-.8-11.5-2.3-15c-1.5-3.5-3.9-6-7.2-7.4-3.3-1.4-7.5-2.1-12.7-2.1h-13.3v48Z"/>
  <path class="st1" d="M82.8,83L112.8,5.4h21.2l30,77.6h-16.6c-2.3,0-4.4-1.4-5.3-3.6l-5.6-14h-26.2l-5.5,14c-.9,2.2-2.9,3.6-5.3,3.6h-16.6ZM112.9,51.1h20.8l-10.5-27-10.4,27Z"/>
  <rect class="st0" x="81.6" y="5.4" width="6.7" height="151.1" rx="3.3" ry="3.3"/>
  <rect class="st0" x="6.7" y="9.6" width="18.9" height="143.6"/>
  <rect class="st0" x="66.1" y="8.8" width="18.9" height="143.6"/>
  <polygon class="st0" points="52.7 65.3 37.6 62.9 67.6 7.5 84.5 15.3 52.7 65.3"/>
  <polygon class="st0" points="39.3 64.6 54.3 62 25.2 8.3 8.3 16 39.3 64.6"/>
  <polygon class="st0" points="52 97.3 37 99.7 67 153.4 83.9 145.9 52 97.3"/>
  <polygon class="st0" points="39.8 97.7 54.9 100 24.9 153.7 8 146.2 39.8 97.7"/>
  <rect class="st1" x="170.3" y="73" width="2.8" height="48.7" rx="1.4" ry="1.4" transform="translate(369.2 95.8) rotate(150)"/>
  <rect class="st1" x="170.6" y="112.8" width="2.8" height="47.4" rx="1.4" ry="1.4" transform="translate(91.3 -67.7) rotate(30)"/>
  <rect class="st1" x="189.8" y="136.7" width="2.8" height="21.9" rx="1.4" ry="1.4" transform="translate(99.4 -75.8) rotate(30)"/>
  <rect class="st1" x="186.5" y="64.2" width="2.8" height="35.1" rx="1.4" ry="1.4" transform="translate(-15.7 104.9) rotate(-30)"/>
  <rect class="st1" x="172.3" y="141.7" width="2.8" height="28.3" rx="1.4" ry="1.4" transform="translate(329.5 -17.8) rotate(90)"/>
</svg>