<?xml version="1.0" encoding="UTF-8"?>
<svg id="Warstwa_1" xmlns="http://www.w3.org/2000/svg" version="1.1" viewBox="0 0 246.5 159.9">
  <!-- Generator: Adobe Illustrator 29.1.0, SVG Export Plug-In . SVG Version: 2.1.0 Build 142)  -->
  <defs>
    <style>
      .st0 {
        fill: #1857d5;
      }
    </style>
  </defs>
  <rect class="st0" x="174.2" y="74.4" width="6.7" height="48.7" rx="3.3" ry="3.3" transform="translate(-25.6 102) rotate(-30)"/>
  <rect class="st0" x="154.7" y="131" width="46.6" height="6.7" rx="3.3" ry="3.3" transform="translate(-27.3 221.4) rotate(-60)"/>
  <rect class="st0" x="186.7" y="88.6" width="64.2" height="6.7" rx="3.3" ry="3.3" transform="translate(29.7 235.5) rotate(-60)"/>
  <rect class="st0" x="211.2" y="111" width="6.7" height="46.6" rx="3.3" ry="3.3" transform="translate(-38.4 125.3) rotate(-30)"/>
  <rect class="st0" x="177.7" y="139.4" width="27.1" height="6.7" rx="3.3" ry="3.3" transform="translate(-28 237) rotate(-60)"/>
  <rect class="st0" x="198" y="129.2" width="6.7" height="27.1" rx="3.3" ry="3.3" transform="translate(-44.4 119.8) rotate(-30)"/>
  <rect class="st0" x="185.9" y="84.7" width="35.1" height="6.7" rx="3.3" ry="3.3" transform="translate(25.5 220.2) rotate(-60)"/>
  <rect class="st0" x="185.5" y="68.6" width="6.7" height="37.2" rx="3.3" ry="3.3" transform="translate(-18.3 106.1) rotate(-30)"/>
  <rect class="st0" x="179.1" y="72.4" width="6.7" height="48.7" rx="3.3" ry="3.3" transform="translate(-23.9 104.2) rotate(-30)"/>
  <rect class="st0" x="159.7" y="128.9" width="46.6" height="6.7" rx="3.3" ry="3.3" transform="translate(-23 224.6) rotate(-60)"/>
  <rect class="st0" x="185.4" y="73.4" width="6.7" height="48.7" rx="3.3" ry="3.3" transform="translate(-23.6 107.5) rotate(-30)"/>
  <rect class="st0" x="166" y="130" width="46.6" height="6.7" rx="3.3" ry="3.3" transform="translate(-20.8 230.6) rotate(-60)"/>
  <rect class="st0" x="184.9" y="93" width="48.7" height="6.7" rx="3.3" ry="3.3" transform="translate(21.2 229.4) rotate(-60)"/>
  <rect class="st0" x="205.4" y="108.6" width="6.7" height="46.6" rx="3.3" ry="3.3" transform="translate(-38 122.1) rotate(-30)"/>
  <rect class="st0" x="178.6" y="94" width="48.7" height="6.7" rx="3.3" ry="3.3" transform="translate(17.2 224.5) rotate(-60)"/>
  <rect class="st0" x="199.1" y="109.7" width="6.7" height="46.6" rx="3.3" ry="3.3" transform="translate(-39.4 119) rotate(-30)"/>
  <rect class="st0" x="54.5" y="105.6" width="6.7" height="51.9" rx="3.3" ry="3.3" transform="translate(-52.6 39.6) rotate(-26.5)"/>
  <rect class="st0" x="11.6" y="128.2" width="51.9" height="6.7" rx="3.3" ry="3.3" transform="translate(-96.9 106.4) rotate(-63.5)"/>
  <rect class="st0" x="5.1" y="148.4" width="25.6" height="6.7" rx="3.3" ry="3.3"/>
  <rect class="st0" x="64.5" y="148.4" width="25.6" height="6.7" rx="3.3" ry="3.3"/>
  <rect class="st0" x="15.3" y="103.5" width="38.6" height="6.7" rx="3.3" ry="3.3" transform="translate(-76.4 90.1) rotate(-63.5)"/>
  <rect class="st0" x="57.6" y="87.7" width="6.7" height="38.4" rx="3.3" ry="3.3" transform="translate(-41.3 38.4) rotate(-26.5)"/>
  <rect class="st0" x="38.3" y="63.4" width="18.9" height="6.7" rx="3.3" ry="3.3"/>
  <rect class="st0" x="38.4" y="89.3" width="18.9" height="6.7" rx="3.3" ry="3.3"/>
  <rect class="st0" x="112.6" y="149" width="25.6" height="6.7" rx="3.3" ry="3.3"/>
  <rect class="st0" x="112.1" y="106.4" width="26.6" height="6.7" rx="3.3" ry="3.3"/>
  <rect class="st0" x="109.6" y="92.7" width="31.8" height="6.7" rx="3.3" ry="3.3"/>
  <rect class="st0" x="98.1" y="75.5" width="6.7" height="82.8" rx="3.3" ry="3.3" transform="translate(-36.8 47.2) rotate(-22.3)"/>
  <rect class="st0" x="107.4" y="113.1" width="84.2" height="6.7" rx="3.3" ry="3.3" transform="translate(-14.9 210.6) rotate(-67.7)"/>
  <rect class="st0" x="117.1" y="105.4" width="6.7" height="31.7" rx="3.3" ry="3.3" transform="translate(-38.3 57.8) rotate(-23.4)"/>
  <rect class="st0" x="114.6" y="117.9" width="31.7" height="6.7" rx="3.3" ry="3.3" transform="translate(-32.7 192.9) rotate(-66.6)"/>
  <rect class="st0" x="105.9" y="75.4" width="6.7" height="24.6" rx="3.3" ry="3.3" transform="translate(-25.9 50.6) rotate(-23.4)"/>
  <rect class="st0" x="129.3" y="84.4" width="24.8" height="6.7" rx="3.3" ry="3.3" transform="translate(4.9 182.9) rotate(-66.6)"/>
  <rect class="st0" x="164.7" y="148.3" width="24.5" height="6.7" rx="3.3" ry="3.3"/>
  <rect class="st0" x="203.2" y="148.3" width="24.5" height="6.7" rx="3.3" ry="3.3"/>
  <path d="M162.5,81.6V3.5h38.7c9.1,0,16.7,1.3,22.9,3.9s10.9,6.8,14.1,12.6c3.2,5.8,4.9,13.4,4.9,23s-3.5,23.2-10.6,29.4c-7.1,6.1-17.5,9.2-31.3,9.2h-38.7,0ZM184.8,66.5h13.3c4.8,0,8.8-.6,12.1-1.9,3.3-1.3,5.8-3.6,7.5-7s2.6-8.3,2.6-14.7-.8-11.5-2.3-15-3.9-6-7.2-7.4-7.5-2.1-12.7-2.1h-13.3v48h0Z"/>
  <rect class="st0" x="188.8" y="120" width="16.9" height="14.3"/>
  <path d="M84.5,81.5L114.5,3.9h21.2l30,77.6h-16.6c-2.3,0-4.4-1.4-5.3-3.6l-5.6-14h-26.2l-5.5,14c-.9,2.2-2.9,3.6-5.3,3.6h-16.7ZM114.6,49.6h20.8l-10.5-27-10.4,27h.1Z"/>
  <rect class="st0" x="5.2" y="4" width="6.7" height="151.1" rx="3.3" ry="3.3"/>
  <rect class="st0" x="83.4" y="4" width="6.7" height="151.1" rx="3.3" ry="3.3"/>
  <rect class="st0" x="24.1" y="34.9" width="6.7" height="89.6" rx="3.3" ry="3.3"/>
  <rect class="st0" x="64.7" y="35.1" width="6.7" height="89.6" rx="3.3" ry="3.3"/>
  <rect class="st0" x="5.2" y="3.9" width="25.6" height="6.7" rx="3.3" ry="3.3"/>
  <rect class="st0" x="64.6" y="3.9" width="25.6" height="6.7" rx="3.3" ry="3.3"/>
  <rect class="st0" x="31.9" y="24.2" width="51.9" height="6.7" rx="3.3" ry="3.3" transform="translate(7.4 67) rotate(-63.5)"/>
  <rect class="st0" x="34.2" y="1.6" width="6.7" height="51.9" rx="3.3" ry="3.3" transform="translate(-8.4 19.6) rotate(-26.5)"/>
  <rect class="st0" x="31.2" y="33.2" width="6.7" height="38.6" rx="3.3" ry="3.3" transform="translate(-19.8 20.9) rotate(-26.5)"/>
  <rect class="st0" x="41.7" y="49.2" width="38.4" height="6.7" rx="3.3" ry="3.3" transform="translate(-13.3 83.7) rotate(-63.5)"/>
  <path d="M168,73.7V11.7h32.6c7.6,0,14.1,1,19.3,3.1,5.2,2.1,9.2,5.4,11.9,10s4.1,10.7,4.1,18.2-3,18.4-8.9,23.3c-6,4.9-14.7,7.3-26.4,7.3h-32.6ZM186.8,61.8h11.2c4.1,0,7.5-.5,10.2-1.5,2.8-1,4.9-2.8,6.3-5.5,1.4-2.7,2.2-6.6,2.2-11.6s-.6-9.1-1.9-11.9c-1.3-2.8-3.3-4.7-6.1-5.9-2.8-1.1-6.3-1.7-10.7-1.7h-11.2v38.1Z"/>
  <polygon class="st0" points="219.5 155 230.7 155 220.3 137.8 219.5 155"/>
  <polygon class="st0" points="173 155 161.9 155 172.2 137.8 173 155"/>
</svg>